<?xml version="1.0" encoding="utf-8"?>
<!-- Generator: Adobe Illustrator 28.2.0, SVG Export Plug-In . SVG Version: 6.00 Build 0)  -->
<svg version="1.1" id="Layer_1" xmlns="http://www.w3.org/2000/svg" xmlns:xlink="http://www.w3.org/1999/xlink" x="0px" y="0px"
	 viewBox="0 0 375 100" style="enable-background:new 0 0 375 100;" xml:space="preserve">
<style type="text/css">
	.st0{fill:#001949;}
	.st1{fill:#0AB7D4;}
</style>
<g>
	<g>
		<polygon class="st0" points="202.2,56.5 184.5,14.9 180.9,23.4 195,56.5 		"/>
		<g>
			<g>
				<path class="st1" d="M11.8,15.1h7.5l12.2,19.6l12.2-19.6h7.5v41.3h-7V26.8L31.5,46.3h-0.2L18.7,27v29.5h-6.9V15.1z"/>
				<path class="st1" d="M64.2,15.1h7v41.3h-7V15.1z"/>
				<path class="st1" d="M93.5,21.9H80.8v-6.7h32.5v6.7h-12.7v34.6h-7.1V21.9z"/>
				<path class="st1" d="M146.3,40.8c5.6-1.7,9.5-5.7,9.5-12.5v-0.1c0-3.6-1.2-6.7-3.3-8.9c-2.6-2.6-6.5-4.1-11.6-4.1h-17.9v41.3h7
					V42.1h8.8l9.8,14.3l3.2-7.5L146.3,40.8z M130.1,35.6V21.8h10.3c5.2,0,8.3,2.4,8.3,6.9v0.1c0,4.2-3.2,6.9-8.2,6.9H130.1z"/>
			</g>
			<g>
				<path class="st1" d="M215.2,21.9h-12.7v-6.7H235v6.7h-12.7v34.6h-7.1V21.9z"/>
				<path class="st1" d="M244.8,15.1h29.7v6.5h-22.7v10.8h20.1v6.5h-20.1V50h23v6.5h-30V15.1z"/>
				<path class="st1" d="M283.1,35.9v-0.1c0-11.8,8.5-21.4,20.7-21.4c7.4,0,11.9,2.7,15.7,6.4l-4.5,5.4c-3.2-3.1-6.6-5.1-11.2-5.1
					c-7.6,0-13.2,6.5-13.2,14.6v0.1c0,8.1,5.6,14.7,13.2,14.7c4.9,0,8.1-2,11.5-5.3l4.5,4.7c-4.2,4.5-8.8,7.3-16.3,7.3
					C291.8,57.2,283.1,47.8,283.1,35.9z"/>
				<path class="st1" d="M330,15.1h7v17.2h19.1V15.1h7v41.3h-7V39.1H337v17.4h-7V15.1z"/>
			</g>
			<polygon class="st1" points="184.5,14.8 177.3,14.8 177.3,14.9 159.7,56.5 166.9,56.5 184.5,14.9 			"/>
		</g>
	</g>
	<g>
		<path class="st0" d="M239.1,72.4v2.1h-3.5v10.9H233V74.5h-3.5v-2.1H239.1z"/>
		<path class="st0" d="M250.5,81h-7.5c0.1,0.7,0.3,1.3,0.8,1.7c0.5,0.4,1,0.6,1.7,0.6c1,0,1.7-0.4,2.1-1.2h2.8
			c-0.3,1-0.9,1.8-1.7,2.4c-0.8,0.6-1.9,1-3.1,1c-1,0-1.9-0.2-2.7-0.7c-0.8-0.4-1.4-1.1-1.8-1.9c-0.4-0.8-0.7-1.7-0.7-2.8
			c0-1.1,0.2-2,0.7-2.8c0.4-0.8,1-1.4,1.8-1.9c0.8-0.4,1.7-0.7,2.7-0.7c1,0,1.9,0.2,2.6,0.6c0.8,0.4,1.4,1,1.8,1.8
			c0.4,0.8,0.6,1.7,0.6,2.7C250.5,80.4,250.5,80.7,250.5,81z M247.9,79.3c0-0.7-0.3-1.2-0.7-1.6s-1-0.6-1.7-0.6
			c-0.6,0-1.2,0.2-1.6,0.6c-0.4,0.4-0.7,0.9-0.8,1.6H247.9z"/>
		<path class="st0" d="M252.4,77.4c0.4-0.8,1-1.4,1.7-1.9c0.7-0.4,1.5-0.7,2.4-0.7c0.8,0,1.4,0.2,2,0.5c0.6,0.3,1,0.7,1.4,1.2v-1.5
			h2.6v10.3h-2.6v-1.5c-0.3,0.5-0.8,0.9-1.4,1.2c-0.6,0.3-1.3,0.5-2,0.5c-0.9,0-1.7-0.2-2.4-0.7c-0.7-0.4-1.3-1.1-1.7-1.9
			c-0.4-0.8-0.6-1.7-0.6-2.8C251.8,79.2,252,78.2,252.4,77.4z M259.5,78.6c-0.2-0.5-0.6-0.8-1-1c-0.4-0.2-0.9-0.4-1.4-0.4
			s-0.9,0.1-1.3,0.4c-0.4,0.2-0.7,0.6-1,1c-0.3,0.5-0.4,1-0.4,1.6s0.1,1.2,0.4,1.6c0.3,0.5,0.6,0.8,1,1.1c0.4,0.2,0.9,0.4,1.3,0.4
			c0.5,0,0.9-0.1,1.4-0.4c0.4-0.2,0.8-0.6,1-1c0.2-0.5,0.4-1,0.4-1.6S259.8,79.1,259.5,78.6z"/>
		<path class="st0" d="M280.9,76.1c0.8,0.8,1.2,1.9,1.2,3.2v6h-2.6v-5.7c0-0.8-0.2-1.4-0.6-1.8c-0.4-0.4-1-0.6-1.7-0.6
			s-1.3,0.2-1.7,0.6c-0.4,0.4-0.6,1-0.6,1.8v5.7h-2.6v-5.7c0-0.8-0.2-1.4-0.6-1.8c-0.4-0.4-1-0.6-1.7-0.6c-0.7,0-1.3,0.2-1.7,0.6
			c-0.4,0.4-0.6,1-0.6,1.8v5.7H265V75.1h2.6v1.2c0.3-0.4,0.8-0.8,1.3-1c0.5-0.2,1.1-0.4,1.7-0.4c0.8,0,1.5,0.2,2.2,0.5
			c0.6,0.3,1.1,0.8,1.5,1.5c0.3-0.6,0.8-1.1,1.5-1.4c0.6-0.4,1.3-0.5,2.1-0.5C279.1,75,280.1,75.3,280.9,76.1z"/>
		<path class="st0" d="M284.8,75.5c0.6-1,1.4-1.8,2.4-2.4c1-0.6,2.1-0.8,3.4-0.8c1.4,0,2.7,0.4,3.8,1.1c1.1,0.7,1.9,1.8,2.3,3.1h-3
			c-0.3-0.6-0.7-1.1-1.3-1.4c-0.5-0.3-1.2-0.5-1.9-0.5c-0.8,0-1.4,0.2-2,0.5c-0.6,0.4-1,0.9-1.4,1.5c-0.3,0.6-0.5,1.4-0.5,2.3
			c0,0.9,0.2,1.6,0.5,2.3s0.8,1.2,1.4,1.5c0.6,0.4,1.3,0.5,2,0.5c0.7,0,1.3-0.2,1.9-0.5c0.5-0.3,1-0.8,1.3-1.4h3
			c-0.4,1.3-1.2,2.4-2.3,3.1c-1.1,0.7-2.4,1.1-3.8,1.1c-1.2,0-2.4-0.3-3.4-0.8c-1-0.6-1.8-1.3-2.4-2.4c-0.6-1-0.9-2.1-0.9-3.4
			C283.9,77.6,284.2,76.5,284.8,75.5z"/>
		<path class="st0" d="M300.7,84.9c-0.8-0.4-1.4-1.1-1.9-1.9c-0.5-0.8-0.7-1.7-0.7-2.8s0.2-2,0.7-2.8c0.5-0.8,1.1-1.4,1.9-1.9
			c0.8-0.4,1.7-0.7,2.7-0.7c1,0,1.9,0.2,2.7,0.7c0.8,0.4,1.4,1.1,1.9,1.9c0.5,0.8,0.7,1.7,0.7,2.8s-0.2,2-0.7,2.8
			c-0.5,0.8-1.1,1.4-1.9,1.9c-0.8,0.4-1.7,0.7-2.7,0.7C302.4,85.6,301.5,85.3,300.7,84.9z M304.7,83c0.4-0.2,0.7-0.6,1-1
			c0.2-0.5,0.4-1,0.4-1.7c0-1-0.3-1.7-0.8-2.3c-0.5-0.5-1.1-0.8-1.9-0.8s-1.4,0.3-1.9,0.8c-0.5,0.5-0.8,1.3-0.8,2.3s0.2,1.7,0.7,2.3
			c0.5,0.5,1.1,0.8,1.8,0.8C303.8,83.3,304.3,83.2,304.7,83z"/>
		<path class="st0" d="M319.3,76.1c0.8,0.8,1.1,1.9,1.1,3.2v6h-2.6v-5.7c0-0.8-0.2-1.4-0.6-1.9c-0.4-0.4-1-0.7-1.7-0.7
			c-0.7,0-1.3,0.2-1.7,0.7c-0.4,0.4-0.6,1.1-0.6,1.9v5.7h-2.6V75.1h2.6v1.3c0.3-0.4,0.8-0.8,1.3-1.1c0.5-0.3,1.1-0.4,1.8-0.4
			C317.6,75,318.6,75.3,319.3,76.1z"/>
		<path class="st0" d="M331.6,76.1c0.8,0.8,1.1,1.9,1.1,3.2v6h-2.6v-5.7c0-0.8-0.2-1.4-0.6-1.9c-0.4-0.4-1-0.7-1.7-0.7
			c-0.7,0-1.3,0.2-1.7,0.7c-0.4,0.4-0.6,1.1-0.6,1.9v5.7h-2.6V75.1h2.6v1.3c0.3-0.4,0.8-0.8,1.3-1.1c0.5-0.3,1.1-0.4,1.8-0.4
			C329.9,75,330.9,75.3,331.6,76.1z"/>
		<path class="st0" d="M344.7,81h-7.5c0.1,0.7,0.3,1.3,0.8,1.7c0.5,0.4,1,0.6,1.7,0.6c1,0,1.7-0.4,2.1-1.2h2.8
			c-0.3,1-0.9,1.8-1.7,2.4c-0.8,0.6-1.9,1-3.1,1c-1,0-1.9-0.2-2.7-0.7c-0.8-0.4-1.4-1.1-1.8-1.9c-0.4-0.8-0.7-1.7-0.7-2.8
			c0-1.1,0.2-2,0.7-2.8c0.4-0.8,1-1.4,1.8-1.9c0.8-0.4,1.7-0.7,2.7-0.7c1,0,1.9,0.2,2.6,0.6c0.8,0.4,1.4,1,1.8,1.8
			c0.4,0.8,0.6,1.7,0.6,2.7C344.8,80.4,344.8,80.7,344.7,81z M342.1,79.3c0-0.7-0.3-1.2-0.7-1.6s-1-0.6-1.7-0.6
			c-0.6,0-1.2,0.2-1.6,0.6c-0.4,0.4-0.7,0.9-0.8,1.6H342.1z"/>
		<path class="st0" d="M346.7,77.5c0.4-0.8,1-1.4,1.8-1.9c0.8-0.4,1.6-0.7,2.6-0.7c1.3,0,2.3,0.3,3.2,1c0.8,0.6,1.4,1.5,1.7,2.7
			h-2.8c-0.1-0.4-0.4-0.8-0.8-1.1c-0.4-0.3-0.8-0.4-1.3-0.4c-0.7,0-1.3,0.3-1.8,0.8c-0.4,0.5-0.7,1.3-0.7,2.3c0,1,0.2,1.7,0.7,2.3
			c0.4,0.5,1,0.8,1.8,0.8c1.1,0,1.7-0.5,2.1-1.4h2.8c-0.3,1.1-0.8,2-1.7,2.7c-0.8,0.7-1.9,1-3.2,1c-1,0-1.9-0.2-2.6-0.7
			c-0.8-0.4-1.4-1.1-1.8-1.9c-0.4-0.8-0.7-1.7-0.7-2.8C346,79.2,346.2,78.3,346.7,77.5z"/>
		<path class="st0" d="M360.9,77.2v5c0,0.3,0.1,0.6,0.3,0.8c0.2,0.2,0.4,0.2,0.8,0.2h1.2v2.2h-1.6c-2.2,0-3.3-1.1-3.3-3.2v-5h-1.2
			v-2.1h1.2v-2.5h2.6v2.5h2.3v2.1H360.9z"/>
	</g>
</g>
</svg>
