<svg id="Tracker_I-9_Product_Logo-43" data-name="Tracker I-9 Product Logo-43" xmlns="http://www.w3.org/2000/svg" width="181.852" height="32.301" viewBox="0 0 181.852 32.301">
  <g id="Group_173618" data-name="Group 173618">
    <rect id="Rectangle_5442" data-name="Rectangle 5442" width="2.021" height="32.302" transform="translate(10.65)" fill="#0ab7d4"/>
    <rect id="Rectangle_5443" data-name="Rectangle 5443" width="2.021" height="23.707" transform="translate(5.288 4.297)" fill="#0ab7d4"/>
    <rect id="Rectangle_5444" data-name="Rectangle 5444" width="2.021" height="1.981" transform="translate(21.191 8.97)" fill="#0ab7d4"/>
    <path id="Path_3956" data-name="Path 3956" d="M46.708,22.611l-7.468,7.468V22.52H37.22v9.636l.011,2.891L39.2,32.976l8.936-8.936Z" transform="translate(-16.035 -9.702)" fill="#0ab7d4"/>
    <rect id="Rectangle_5445" data-name="Rectangle 5445" width="2.021" height="23.707" transform="translate(15.841 4.297)" fill="#0ab7d4"/>
    <rect id="Rectangle_5446" data-name="Rectangle 5446" width="2.021" height="14.987" transform="translate(0 8.657)" fill="#0ab7d4"/>
  </g>
  <g id="Group_173621" data-name="Group 173621" transform="translate(41.147 4.019)">
    <g id="Group_173620" data-name="Group 173620">
      <g id="Group_173619" data-name="Group 173619">
        <path id="Path_3957" data-name="Path 3957" d="M81.653,29.445H79.274V10.8H72.29V8.63H88.643V10.8h-6.99Z" transform="translate(-72.29 -7.736)" fill="#002453"/>
        <path id="Path_3958" data-name="Path 3958" d="M105.708,33.357H103.42V17.983h2.288V22a6.578,6.578,0,0,1,6.272-4.28v2.47H111.8c-3.358,0-6.1,2.408-6.1,7.047Z" transform="translate(-85.701 -11.648)" fill="#002453"/>
        <path id="Path_3959" data-name="Path 3959" d="M123.275,20.973l-.683-1.873a12.679,12.679,0,0,1,5.59-1.281c4.195,0,6.54,2.14,6.54,6.187v9.4h-2.2V31.088a6.726,6.726,0,0,1-5.561,2.647c-2.857,0-5.737-1.605-5.737-4.815,0-3.273,2.675-5,6.568-5a16.264,16.264,0,0,1,4.724.655v-.535c0-2.766-1.7-4.195-4.576-4.195A10.707,10.707,0,0,0,123.275,20.973Zm.268,7.849c0,1.964,1.782,3.091,3.865,3.091,2.823,0,5.146-1.725,5.146-4.161V26.267a16.115,16.115,0,0,0-4.519-.655C125.153,25.612,123.542,26.864,123.542,28.823Z" transform="translate(-93.369 -11.695)" fill="#002453"/>
        <path id="Path_3960" data-name="Path 3960" d="M159.718,33.667a8.029,8.029,0,1,1,6.153-13.319l-1.514,1.605a6.191,6.191,0,0,0-4.667-2.317,5.681,5.681,0,0,0-5.5,5.977,5.751,5.751,0,0,0,5.652,6,6.33,6.33,0,0,0,4.7-2.288L166,30.7A7.928,7.928,0,0,1,159.718,33.667Z" transform="translate(-106.561 -11.605)" fill="#002453"/>
        <path id="Path_3961" data-name="Path 3961" d="M196.984,28.769h-2.738l-5.5-7.166-3.119,3.153v4.013H183.34V7.06h2.288V22.047l8.293-8.652h2.857L190.324,20Z" transform="translate(-120.131 -7.06)" fill="#002453"/>
        <path id="Path_3962" data-name="Path 3962" d="M217.805,31.683a6.347,6.347,0,0,0,4.844-2.169l1.429,1.281a7.942,7.942,0,0,1-6.335,2.886,7.647,7.647,0,0,1-7.673-8.026c0-4.462,3.119-8.026,7.371-8.026,4.548,0,7.166,3.626,7.166,8.145a6.448,6.448,0,0,1-.028.711H212.387A5.4,5.4,0,0,0,217.805,31.683ZM222.3,24.79c-.239-2.795-1.844-5.231-4.906-5.231-2.675,0-4.7,2.231-5,5.231Z" transform="translate(-131.646 -11.614)" fill="#002453"/>
        <path id="Path_3963" data-name="Path 3963" d="M244.968,33.357H242.68V17.983h2.288V22a6.578,6.578,0,0,1,6.272-4.28v2.47h-.176c-3.358,0-6.1,2.408-6.1,7.047Z" transform="translate(-145.695 -11.648)" fill="#002453"/>
        <path id="Path_3964" data-name="Path 3964" d="M268.06,8.63V29.445H264.4V8.63Z" transform="translate(-155.052 -7.736)" fill="#0ab6d3"/>
        <path id="Path_3965" data-name="Path 3965" d="M298.422,29.531a9.871,9.871,0,0,1-6.66-2.5l1.992-2.795a6.942,6.942,0,0,0,4.758,1.964c3.062,0,4.906-2.7,5.026-6.54a6.145,6.145,0,0,1-4.878,2.2c-4.428,0-7.371-2.584-7.371-6.631,0-4.1,3.153-7.223,7.758-7.223a7.454,7.454,0,0,1,5.766,2.2c1.548,1.548,2.527,3.836,2.527,7.969C307.341,24.9,304.012,29.531,298.422,29.531Zm.655-18.374a3.829,3.829,0,0,0-4.132,3.893c0,2.2,1.668,3.745,4.252,3.745,2.647,0,4.223-1.725,4.223-3.774C303.42,12.825,301.723,11.158,299.077,11.158Z" transform="translate(-166.637 -7.469)" fill="#0ab6d3"/>
      </g>
    </g>
    <rect id="Rectangle_5447" data-name="Rectangle 5447" width="6.216" height="2.664" transform="translate(115.711 9.471)" fill="#0ab7d4"/>
  </g>
</svg>
