<svg width="434" height="65" viewBox="0 0 434 65" fill="none" xmlns="http://www.w3.org/2000/svg">
<g clip-path="url(#clip0_4287_9917)">
<path d="M17.7156 31.6475L23.6209 21.4146L17.7156 11.1924H5.90521L0 21.4146L5.90521 31.6475H17.7156Z" fill="#EC822A"/>
<path d="M36.9984 20.4551L42.9036 10.2329L36.9984 0H25.1879L19.2827 10.2329L25.1879 20.4551H36.9984Z" fill="#E65A36"/>
<path d="M44.5981 33.6514L38.6929 43.8736L44.5981 54.1064H56.4085L62.3137 43.8736L56.4085 33.6514H44.5981Z" fill="#002453"/>
<path d="M17.7156 33.6514H5.90521L0 43.8736L5.90521 54.1064H17.7156L23.6209 43.8736L17.7156 33.6514Z" fill="#67666B"/>
<path d="M44.5981 31.6475H56.4085L62.3137 21.4146L56.4085 11.1924H44.5981L38.6929 21.4146L44.5981 31.6475Z" fill="#1CB3CD"/>
<path d="M25.1879 44.5449L19.2827 54.7671L25.1879 65H36.9984L42.9036 54.7671L36.9984 44.5449H25.1879Z" fill="#B41E80"/>
<path d="M94.0463 48.3394H89.8359V15.349H77.4712V11.5117H106.411V15.349H94.0463V48.3394Z" fill="#002453"/>
<path d="M118.829 45.4401C122.56 45.4401 125.193 43.9158 127.41 41.6028L129.936 43.8625C127.197 46.9111 123.882 48.9683 118.733 48.9683C111.261 48.9683 105.153 43.2336 105.153 34.7595C105.153 26.861 110.675 20.5508 118.2 20.5508C126.248 20.5508 130.885 26.9676 130.885 34.9727C130.885 35.3458 130.885 35.7615 130.831 36.2412H109.257C109.833 42.1251 114.043 45.4401 118.829 45.4401ZM126.77 33.2353C126.344 28.2894 123.509 23.9724 118.094 23.9724C113.361 23.9724 109.779 27.9163 109.257 33.2353H126.77Z" fill="#002453"/>
<path d="M139.561 26.3384L138.346 23.0234C141.341 21.659 144.294 20.7637 148.238 20.7637C155.657 20.7637 159.814 24.5477 159.814 31.7107V48.3391H155.923V44.2353C154.026 46.7082 150.871 48.9147 146.085 48.9147C141.032 48.9147 135.926 46.0687 135.926 40.3873C135.926 34.5994 140.659 31.5508 147.555 31.5508C151.03 31.5508 153.503 32.0198 155.923 32.7127V31.764C155.923 26.8714 152.928 24.3452 147.822 24.3452C144.614 24.3452 142.087 25.1873 139.561 26.3384ZM140.03 40.2274C140.03 43.7023 143.185 45.6956 146.873 45.6956C151.872 45.6956 155.976 42.6471 155.976 38.3301V35.7079C153.972 35.1323 151.297 34.5461 147.982 34.5461C142.876 34.5461 140.03 36.7632 140.03 40.2274Z" fill="#002453"/>
<path d="M199.594 20.5508C205.851 20.5508 209.699 24.7612 209.699 31.4978V48.3394H205.648V32.4465C205.648 27.1808 203.016 24.2389 198.592 24.2389C194.488 24.2389 191.067 27.2874 191.067 32.6597V48.3394H187.069V32.3399C187.069 27.2341 184.383 24.2389 180.066 24.2389C175.749 24.2389 172.488 27.8204 172.488 32.8196V48.3394H168.437V21.137H172.488V25.7098C174.278 23.0237 176.698 20.5508 181.271 20.5508C185.694 20.5508 188.53 22.9171 190.001 25.9657C191.962 22.9704 194.861 20.5508 199.594 20.5508Z" fill="#002453"/>
<path d="M235.793 48.9682C225.059 48.9682 217.064 40.6007 217.064 29.9734C217.064 19.4528 224.91 10.8721 236.059 10.8721C242.849 10.8721 246.953 13.2384 250.481 16.6067L246.324 21.3927C243.382 18.6533 240.216 16.8199 236.006 16.8199C228.95 16.8199 223.854 22.6079 223.854 29.8668C223.854 37.1258 228.96 43.0203 236.006 43.0203C240.536 43.0203 243.425 41.1763 246.58 38.2343L250.737 42.4447C246.9 46.4419 242.689 48.9682 235.793 48.9682Z" fill="#002453"/>
<path d="M269.465 48.9677C260.991 48.9677 254.734 42.4976 254.734 34.5458C254.734 26.5514 261.045 19.9746 269.572 19.9746C278.099 19.9746 284.356 26.4448 284.356 34.4498C284.356 42.391 278.046 48.9677 269.465 48.9677ZM269.465 25.5494C264.36 25.5494 261.098 29.5466 261.098 34.4392C261.098 39.3851 264.626 43.4356 269.572 43.4356C274.731 43.4356 277.993 39.4384 277.993 34.5458C277.993 29.5999 274.465 25.5494 269.465 25.5494Z" fill="#002453"/>
<path d="M297.2 48.3388H290.837V20.5502H297.2V24.8672C298.991 22.2344 301.571 19.9746 305.888 19.9746C312.145 19.9746 315.78 24.185 315.78 30.6552V48.3388H309.416V32.5525C309.416 28.2355 307.263 25.7626 303.468 25.7626C299.78 25.7626 297.211 28.3421 297.211 32.6591V48.3388H297.2Z" fill="#002453"/>
<path d="M329.818 48.3388H323.454V20.5502H329.818V24.8672C331.608 22.2344 334.188 19.9746 338.494 19.9746C344.751 19.9746 348.386 24.185 348.386 30.6552V48.3388H342.022V32.5525C342.022 28.2355 339.869 25.7626 336.075 25.7626C332.387 25.7626 329.818 28.3421 329.818 32.6591V48.3388Z" fill="#002453"/>
<path d="M368.916 43.7554C372.018 43.7554 374.235 42.5935 376.442 40.4403L380.183 43.7554C377.55 46.9105 373.926 48.9677 368.82 48.9677C360.772 48.9677 354.558 43.1265 354.558 34.4925C354.558 26.4981 360.186 19.9746 368.138 19.9746C376.974 19.9746 381.451 26.9244 381.451 34.9722C381.451 35.5477 381.398 36.0807 381.345 36.7096H360.922C361.657 41.2291 364.812 43.7554 368.916 43.7554ZM375.12 32.4992C374.693 28.3954 372.274 25.187 368.063 25.187C364.173 25.187 361.433 28.1822 360.858 32.4992H375.12Z" fill="#002453"/>
<path d="M400.691 48.9677C392.43 48.9677 386.322 42.4976 386.322 34.5458C386.322 26.594 392.43 19.9746 400.744 19.9746C406.01 19.9746 409.272 21.9252 411.851 24.7606L407.907 29.0243C405.957 26.9671 403.91 25.5494 400.702 25.5494C396.075 25.5494 392.707 29.5466 392.707 34.4392C392.707 39.4384 396.129 43.4356 401.021 43.4356C404.017 43.4356 406.234 42.0179 408.227 39.9607L412.064 43.7447C409.325 46.8039 406.116 48.9677 400.691 48.9677Z" fill="#002453"/>
<path d="M425.58 39.6524C425.58 42.1253 426.838 43.1273 429.002 43.1273C430.42 43.1273 431.688 42.8075 432.946 42.1786V47.391C431.368 48.2864 429.577 48.8087 427.211 48.8087C422.532 48.8087 419.217 46.7514 419.217 40.6543V26.0299H415.688V20.5617H419.217V12.9297H425.58V20.5617H433.052V26.0299H425.58V39.6524Z" fill="#002453"/>
</g>
<defs>
<clipPath id="clip0_4287_9917">
<rect width="433.053" height="65" fill="white"/>
</clipPath>
</defs>
</svg>
