<svg height="2rem" viewBox="0 0 160 15"  fill="none" xmlns="http://www.w3.org/2000/svg">
<g clip-path="url(#clip0_4108_9872)">
<path d="M6.05525 3.53591C5.08287 3.53591 4.28729 2.74033 4.28729 1.76796C4.28729 0.79558 5.08287 0 6.05525 0C7.02762 0 7.8232 0.79558 7.8232 1.76796C7.8453 2.74033 7.04972 3.53591 6.05525 3.53591ZM6.05525 0.707182C5.48066 0.707182 4.99448 1.17127 4.99448 1.76796C4.99448 2.34254 5.45856 2.82873 6.05525 2.82873C6.65193 2.82873 7.11602 2.34254 7.11602 1.76796C7.11602 1.19337 6.65193 0.707182 6.05525 0.707182Z" fill="#FF5C02"/>
<path d="M6.05525 8.97243C5.08287 8.97243 4.28729 8.17685 4.28729 7.20448C4.28729 6.2321 5.08287 5.43652 6.05525 5.43652C7.02762 5.43652 7.8232 6.2321 7.8232 7.20448C7.8232 8.17685 7.04972 8.97243 6.05525 8.97243ZM6.05525 6.14371C5.48066 6.14371 4.99447 6.60779 4.99447 7.20448C4.99447 7.80116 5.45856 8.26525 6.05525 8.26525C6.65193 8.26525 7.11602 7.77906 7.11602 7.20448C7.11602 6.62989 6.65193 6.14371 6.05525 6.14371Z" fill="#FF5C02"/>
<path d="M6.05525 14.4314C5.08287 14.4314 4.28729 13.6358 4.28729 12.6635C4.28729 11.6911 5.08287 10.8955 6.05525 10.8955C7.02762 10.8955 7.8232 11.6911 7.8232 12.6635C7.8453 13.6358 7.04972 14.4314 6.05525 14.4314ZM6.05525 11.6027C5.48066 11.6027 4.99448 12.0889 4.99448 12.6635C4.99448 13.238 5.45856 13.7242 6.05525 13.7242C6.65193 13.7242 7.11602 13.2601 7.11602 12.6635C7.11602 12.0668 6.65193 11.6027 6.05525 11.6027Z" fill="#FF5C02"/>
<path d="M9.03869 1.41406H8.5083C8.5304 1.52456 8.5525 1.65716 8.5525 1.78975C8.5525 1.90025 8.5304 2.03285 8.5083 2.14334H9.03869C10.3426 2.14334 11.4033 3.20412 11.4033 4.50799C11.4033 5.81185 10.3426 6.87263 9.03869 6.87263H8.5083C8.5304 6.98312 8.5525 7.09362 8.5525 7.22622C8.5525 7.35881 8.5304 7.46931 8.5083 7.60191H9.03869C10.7403 7.60191 12.1326 6.20964 12.1326 4.50799C12.1326 2.78423 10.7403 1.41406 9.03869 1.41406Z" fill="#FF5C02"/>
<path d="M3.62431 6.85059H3.09392C1.39227 6.85059 0 8.24285 0 9.94451C0 11.6462 1.39227 13.0384 3.09392 13.0384H3.62431C3.60221 12.9279 3.58011 12.7953 3.58011 12.6848C3.58011 12.5743 3.60221 12.4417 3.62431 12.3312H3.09392C1.79006 12.3312 0.729282 11.2705 0.729282 9.96661C0.729282 8.66274 1.79006 7.55777 3.09392 7.55777H3.62431C3.60221 7.44727 3.58011 7.33677 3.58011 7.22628C3.58011 7.09368 3.60221 6.96108 3.62431 6.85059Z" fill="#FF5C02"/>
<path d="M20.3536 10.6962H19.4917V3.84538H16.9061V3.0498H22.9171V3.84538H20.3536V10.6962Z" fill="#002453"/>
<path d="M30.6519 10.6965H29.7238L28.8177 8.68542H24.663L23.7569 10.6965H22.8729L26.3646 3.00586H27.1823L30.6519 10.6965ZM26.7624 4.00033L25.0166 7.88984H28.5083L26.7624 4.00033Z" fill="#002453"/>
<path d="M34.8729 8.00008H33.0166V10.6962H32.1547V3.0498H35.0055C36.7293 3.0498 37.8564 3.95588 37.8564 5.48074C37.8785 7.1382 36.5083 8.00008 34.8729 8.00008ZM34.9613 3.84538H33.0387V7.2045H34.9171C36.1768 7.2045 37.0166 6.51942 37.0166 5.52494C36.9945 4.41997 36.1768 3.84538 34.9613 3.84538Z" fill="#002453"/>
<path d="M45.9005 3.02832H47.0276L48.9061 8.70788L50.7182 3.05042H52.1326L49.4807 10.741H48.3315L46.453 5.26036L44.5746 10.741H43.4254L40.7514 3.05042H42.2099L44.0221 8.70788L45.9005 3.02832Z" fill="#FF5C02"/>
<path d="M55.3812 10.8294C53.6353 10.8294 52.3315 9.48134 52.3315 7.84598C52.3315 6.18853 53.6353 4.81836 55.4033 4.81836C57.1713 4.81836 58.4751 6.16643 58.4751 7.82388C58.4751 9.45924 57.1713 10.8294 55.3812 10.8294ZM55.3812 5.96753C54.3204 5.96753 53.6353 6.80731 53.6353 7.80178C53.6353 8.81836 54.3646 9.65814 55.3812 9.65814C56.442 9.65814 57.1271 8.81836 57.1271 7.82388C57.1492 6.80731 56.4199 5.96753 55.3812 5.96753Z" fill="#FF5C02"/>
<path d="M61.1271 10.6962H59.8011V4.92823H61.1271V6.2321C61.4806 5.37022 62.1436 4.77353 63.1602 4.81773V6.21H63.0718C61.9226 6.21 61.105 6.96138 61.105 8.48624L61.1271 10.6962Z" fill="#FF5C02"/>
<path d="M69.7237 10.697H68.1989L66.453 8.19977L65.6574 9.03955V10.697H64.3315V2.74121H65.6574V7.49259L68.0442 4.95116H69.6575L67.3591 7.2937L69.7237 10.697Z" fill="#FF5C02"/>
<path d="M73.79 4.97279V6.05566H72.2873V10.6744H70.9613V6.05566H70.232V4.95069H70.9613V4.5308C70.9613 3.27113 71.6022 2.65234 72.7293 2.65234C73.1934 2.65234 73.5027 2.71864 73.79 2.80704V3.91201C73.5248 3.82361 73.3038 3.77942 73.0166 3.77942C72.5083 3.77942 72.2431 4.04461 72.2431 4.66339V4.97279H73.79Z" fill="#FF5C02"/>
<path d="M74.8508 10.697V2.74121H76.1768V10.697H74.8508Z" fill="#FF5C02"/>
<path d="M80.6409 10.8294C78.8729 10.8294 77.5912 9.48134 77.5912 7.84598C77.5912 6.18853 78.895 4.81836 80.663 4.81836C82.4309 4.81836 83.7348 6.16643 83.7348 7.82388C83.7127 9.45924 82.4088 10.8294 80.6409 10.8294ZM80.6409 5.96753C79.5801 5.96753 78.895 6.80731 78.895 7.80178C78.895 8.81836 79.6243 9.65814 80.663 9.65814C81.7238 9.65814 82.4088 8.81836 82.4088 7.82388C82.4088 6.80731 81.6575 5.96753 80.6409 5.96753Z" fill="#FF5C02"/>
<path d="M90.4972 8.88415L91.6685 4.92835H92.9945L91.116 10.7405H89.9447L88.663 6.8068L87.3591 10.7405H86.1878L84.3315 4.92835H85.6795L86.8287 8.88415L88.1105 4.90625H89.2376L90.4972 8.88415Z" fill="#FF5C02"/>
<path d="M100.972 10.6965H99.558L98.7845 8.86221H95.1823L94.4088 10.6965H93.0387L96.3536 3.00586H97.5912L100.972 10.6965ZM96.9503 4.59702L95.6464 7.64674H98.2762L96.9503 4.59702Z" fill="#FF5C02"/>
<path d="M105.79 4.92871H107.116V10.6967H105.79V9.81269C105.414 10.3652 104.884 10.8293 104 10.8293C102.696 10.8293 101.945 9.94529 101.945 8.61932V4.92871H103.271V8.19943C103.271 9.08341 103.713 9.61379 104.508 9.61379C105.282 9.61379 105.812 9.08341 105.812 8.17733L105.79 4.92871Z" fill="#FF5C02"/>
<path d="M110.365 8.88485C110.365 9.39314 110.63 9.61413 111.072 9.61413C111.359 9.61413 111.624 9.54784 111.889 9.41524V10.4981C111.558 10.6749 111.182 10.7854 110.696 10.7854C109.724 10.7854 109.039 10.3655 109.039 9.08375V6.05612H108.309V4.92905H109.039V3.33789H110.365V4.92905H111.912V6.05612H110.365V8.88485Z" fill="#FF5C02"/>
<path d="M115.823 10.8294C114.055 10.8294 112.773 9.48134 112.773 7.84598C112.773 6.18853 114.077 4.81836 115.845 4.81836C117.613 4.81836 118.917 6.16643 118.917 7.82388C118.917 9.45924 117.591 10.8294 115.823 10.8294ZM115.823 5.96753C114.762 5.96753 114.099 6.80731 114.099 7.80178C114.099 8.81836 114.829 9.65814 115.867 9.65814C116.928 9.65814 117.613 8.81836 117.613 7.82388C117.591 6.80731 116.862 5.96753 115.823 5.96753Z" fill="#FF5C02"/>
<path d="M126.983 4.81836C128.243 4.81836 128.994 5.61394 128.994 7.0283V10.6968H127.668V7.42609C127.668 6.52002 127.249 6.01173 126.497 6.01173C125.768 6.01173 125.26 6.52002 125.26 7.44819V10.6968H123.934V7.404C123.934 6.52002 123.492 6.01173 122.762 6.01173C122.033 6.01173 121.525 6.56422 121.525 7.44819V10.6968H120.199V4.92886H121.525V5.81283C121.901 5.30455 122.409 4.81836 123.293 4.81836C124.133 4.81836 124.707 5.21615 125.017 5.83493C125.503 5.21615 126.122 4.81836 126.983 4.81836Z" fill="#FF5C02"/>
<path d="M134.144 10.6966V9.98938C133.746 10.4535 133.149 10.8292 132.287 10.8292C131.204 10.8292 130.232 10.2104 130.232 9.0612V9.0391C130.232 7.80153 131.227 7.18275 132.575 7.18275C133.282 7.18275 133.724 7.27114 134.166 7.42584V7.29324C134.166 6.49766 133.657 6.05567 132.751 6.05567C132.11 6.05567 131.624 6.18827 131.094 6.40927L130.74 5.34849C131.381 5.0612 132 4.8623 132.928 4.8623C134.63 4.8623 135.47 5.76838 135.47 7.29324V10.7187C135.447 10.6966 134.144 10.6966 134.144 10.6966ZM134.166 8.24352C133.834 8.11092 133.348 8.02253 132.84 8.02253C132 8.02253 131.514 8.35402 131.514 8.9507V8.9728C131.514 9.52529 132 9.81258 132.619 9.81258C133.503 9.81258 134.144 9.32639 134.144 8.59711L134.166 8.24352Z" fill="#FF5C02"/>
<path d="M138.564 8.88485C138.564 9.39314 138.829 9.61413 139.271 9.61413C139.558 9.61413 139.823 9.54784 140.088 9.41524V10.4981C139.757 10.6749 139.381 10.7854 138.895 10.7854C137.923 10.7854 137.238 10.3655 137.238 9.08375V6.05612H136.508V4.92905H137.238V3.33789H138.564V4.92905H140.11V6.05612H138.564V8.88485Z" fill="#FF5C02"/>
<path d="M141.459 4.04482V2.78516H142.873V4.04482H141.459ZM141.503 10.6968V4.9288H142.829V10.6968H141.503Z" fill="#FF5C02"/>
<path d="M147.293 10.8294C145.525 10.8294 144.243 9.48134 144.243 7.84598C144.243 6.18853 145.547 4.81836 147.315 4.81836C149.083 4.81836 150.387 6.16643 150.387 7.82388C150.387 9.45924 149.061 10.8294 147.293 10.8294ZM147.293 5.96753C146.232 5.96753 145.569 6.80731 145.569 7.80178C145.569 8.81836 146.298 9.65814 147.337 9.65814C148.398 9.65814 149.083 8.81836 149.083 7.82388C149.061 6.80731 148.331 5.96753 147.293 5.96753Z" fill="#FF5C02"/>
<path d="M153.039 10.6968H151.713V4.92886H153.039V5.83493C153.414 5.28245 153.945 4.81836 154.829 4.81836C156.133 4.81836 156.884 5.70234 156.884 7.0283V10.6968H155.558V7.42609C155.558 6.54212 155.116 6.01173 154.32 6.01173C153.547 6.01173 153.017 6.54212 153.017 7.44819V10.6968H153.039Z" fill="#FF5C02"/>
</g>
<defs>
<clipPath id="clip0_4108_9872">
<rect width="160" height="14.4309" fill="white"/>
</clipPath>
</defs>
</svg>
